<svg xmlns="http://www.w3.org/2000/svg" width="200" height="200" opacity="0.04">
  <defs>
    <pattern id="tile" x="0" y="0" width="40" height="40" patternUnits="userSpaceOnUse">
      <path d="M20 5 C12 5 6 11 6 19c0 2.8.8 5.4 2.1 7.6L6 32l5.4-1.4A13.8 13.8 0 0020 33c8 0 14-6 14-14S28 5 20 5zm6 19.3c-.3.8-1.6 1.5-2.2 1.6-.6.1-1.3.1-2.1-.1-.5-.2-1.1-.4-1.9-.7-3.4-1.5-5.6-4.9-5.8-5.1-.2-.2-1.3-1.8-1.3-3.4 0-1.6.9-2.4 1.2-2.7.3-.3.6-.4.9-.4h.6c.2 0 .5-.1.7.6.3.7.9 2.3 1 2.4.1.2.1.4 0 .6-.1.2-.2.4-.3.6-.2.2-.3.4-.1.7.2.3.8 1.4 1.8 2.2 1.2 1.1 2.2 1.4 2.6 1.6.3.2.5.1.7-.1.2-.2.8-1 1-1.3.2-.3.4-.3.7-.2.3.1 1.9.9 2.2 1.1.3.2.5.2.6.4.1.1.1.8-.2 1.5z" fill="#25d366"/>
    </pattern>
  </defs>
  <rect width="200" height="200" fill="url(#tile)"/>
</svg>
